<?xml version="1.0" encoding="UTF-8"?>
<svg id="Capa_3" data-name="Capa 3" xmlns="http://www.w3.org/2000/svg" viewBox="0 0 2740 2740">
  <defs>
    <style>
      .cls-1 {
        fill: #28ace1;
      }

      .cls-1, .cls-2 {
        stroke-width: 0px;
      }

      .cls-2 {
        fill: #177cbc;
      }
    </style>
  </defs>
  <path class="cls-1" d="m1694.86,1913.24c103.29,12.39,273.88,14.57,438.92-77.05,18.87-10.48,273.88-155.08,247.29-289-3.81-19.19-12.56-33.93-19.58-43.58-10.78-6.09-27.56-13.76-48.7-15.75-106.94-10.07-179.29,138.73-296.65,249.63-63.58,60.08-163.25,130.68-321.28,175.75Z"/>
  <circle class="cls-2" cx="1449.14" cy="1595.88" r="73.32"/>
  <circle class="cls-1" cx="1251.84" cy="1191.49" r="116.7"/>
  <circle class="cls-2" cx="1090.93" cy="730.56" r="70.52"/>
  <ellipse class="cls-2" cx="1534.22" cy="600.71" rx="152.8" ry="156.16"/>
  <g>
    <path class="cls-2" d="m2262.07,1873.66c13.55-10.8,28.57-21.25,32.8-17.64,7.16,6.11-20.31,49.29-28.36,61.94-31.88,50.11-63.96,82.61-66.42,85.08-98.62,98.78-208.96,164.18-208.96,164.18-64.33,40.2-163.34,92.31-292.54,123.88-310.25,75.81-565.83-22.98-655.24-58.96-90.3-36.33-287.64-118.64-449.99-325.98-34.58-44.16-191.28-251.97-212.61-565.8-4.48-65.86-24.57-464.83,237.22-726.92,88.51-88.6,251.35-204.15,319.4-158.66,25.94,17.34,29.95,52.62,33.22,81.42,14.79,130.15-84.89,194.34-154.48,397.96-22.8,66.72-52.05,152.63-19.03,180.79,48.79,41.61,178.81-87.49,232.84-53.73,43.89,27.42,48.35,148.85-95.15,530.61,5.68-11.54,69.44-136.41,183.59-142.17,12.59-.64,44.03-1.86,75.15,14.16,97.18,50.02,57.63,199.36,119.63,319.43,98.54,190.83,404.16,213.35,490.03,216.65,7.21.28,12.96.45,17.07.52,186.77,3.43,334.62-59.44,441.83-126.76Z"/>
    <path class="cls-1" d="m1081.8,2247.12c-119.62-42.14-337.11-140.07-503.04-360.45-249.56-331.47-255.35-771.14-125.94-1041.07,32.31-67.38,95.04-170.08,110.85-163.35,13.69,5.83-16.95,89.92-38.64,228.83-18.64,119.36-45.03,288.76,8.4,315.68,54.61,27.52,141.86-123.01,201.5-99.07,81.98,32.91-28.26,336.29,48.7,643.11,54.81,218.53,189.09,375.51,298.18,476.31Z"/>
  </g>
</svg>